<?xml version="1.0" encoding="utf-8"?>
<!-- Generator: Adobe Illustrator 23.0.2, SVG Export Plug-In . SVG Version: 6.00 Build 0)  -->
<svg version="1.1" id="Capa_1" xmlns="http://www.w3.org/2000/svg" xmlns:xlink="http://www.w3.org/1999/xlink" x="0px" y="0px"
	 viewBox="0 0 1130 625" style="enable-background:new 0 0 1130 625;" xml:space="preserve">
<style type="text/css">
	.st0{fill:#FFFFFF;}
	.st1{fill:none;stroke:#1E1E1D;stroke-width:0.25;stroke-miterlimit:10;}
	.st2{fill:#CB5524;}
	.st3{fill:#010202;}
</style>
<g>
	<path class="st0" d="M1099.56,300.57l-86.25-69.79l75.67-62.68h-91.87l-32.05,27.79v-29.08h-64.44v45.55h-54.85
		c0,0,1.46-20.88-10.9-31.98c-16.19-14.54-33.05-12.93-33.05-12.93H689.47v7.11c0,0-10.91-7.11-17.18-8.08
		c-6.28-0.97-96.49,0-96.49,0s-16.19-0.64-27.1,12.92c-10.9,13.57-9.91,18.09-9.91,18.09v46.52h-47.25v-76.89H426.1v4.85
		c0,0-5.62-4.2-10.24-4.52c-4.63-0.32-163.24,0-163.24,0l-21.48,21l-20.65-20.19H21.29v132.3h97.82l-63.45,62.35h87.9l87.24-85.94
		l23.8,24.23h104.09v-41.03c0,0,3.3,3.56,6.28,5.49c2.97,1.94,6.28,1.94,6.28,1.94h45.93c0,0,4.63,0,6.28-2.26l1.65-2.26v37.48
		h135.16v-5.17c0,0,7.6,4.52,13.22,5.81c5.62,1.29,93.85,0,93.85,0s9.91-0.97,13.88-3.23c3.97-2.26,6.28-5.17,6.28-5.17v7.76h64.77
		v-38.45l45.94,39.74h84.26l-33.04-29.72h50.23v28.43h63.77v-33.6l38.67,34.24L1099.56,300.57z"/>
	<path class="st1" d="M1099.56,300.57l-86.25-69.79l75.67-62.68h-91.87l-32.05,27.79v-29.08h-64.44v45.55h-54.85
		c0,0,1.46-20.88-10.9-31.98c-16.19-14.54-33.05-12.93-33.05-12.93H689.47v7.11c0,0-10.91-7.11-17.18-8.08
		c-6.28-0.97-96.49,0-96.49,0s-16.19-0.64-27.1,12.92c-10.9,13.57-9.91,18.09-9.91,18.09v46.52h-47.25v-76.89H426.1v4.85
		c0,0-5.62-4.2-10.24-4.52c-4.63-0.32-163.24,0-163.24,0l-21.48,21l-20.65-20.19H21.29v132.3h97.82l-63.45,62.35h87.9l87.24-85.94
		l23.8,24.23h104.09v-41.03c0,0,3.3,3.56,6.28,5.49c2.97,1.94,6.28,1.94,6.28,1.94h45.93c0,0,4.63,0,6.28-2.26l1.65-2.26v37.48
		h135.16v-5.17c0,0,7.6,4.52,13.22,5.81c5.62,1.29,93.85,0,93.85,0s9.91-0.97,13.88-3.23c3.97-2.26,6.28-5.17,6.28-5.17v7.76h64.77
		v-38.45l45.94,39.74h84.26l-33.04-29.72h50.23v28.43h63.77v-33.6l38.67,34.24L1099.56,300.57z"/>
	<path class="st2" d="M439.21,418.41c0,0-6.54-9.8-9.16-9.8c-2.61,0-11.77,0-5.67,14.07c6.1,14.07,31.39,15.77,37.5,12.36
		c6.1-3.41,12.64-7.25,10.9-17.48c-1.74-10.23-13.08-20.04-12.21-34.53c0.87-14.49,19.18-24.29,20.93-24.29c0,0,2.79-2.27,2.45,1.45
		c-0.35,3.71-11.06,20.28-11.06,22.3c0,2.03,1.38,6.42,3.46,7.77c2.07,1.35,4.49,2.71,6.57,0c2.08-2.7,19.71-28.05,21.09-30.41
		c1.38-2.36,1.73-8.79-1.73-13.52c-3.46-4.73-7.61-16.22-22.47-10.48c-14.87,5.75-31.11,21.63-34.57,34.81
		c-3.46,13.18-0.35,18.25,1.73,24.67c2.08,6.42,10.71,16.9,10.37,21.29c-0.35,4.4-1.04,5.75-4.49,5.75
		C449.39,422.35,439.21,418.41,439.21,418.41"/>
	<path class="st2" d="M530.62,374.36c1.73,3.04-1.38,12.17-1.38,12.17h-5.53c-5.53,0-16.94,3.04-23.51,10.14
		c-6.57,7.1-13.13,26.7-10.37,27.71c2.76,1.01,5.19-0.68,11.06-5.75c5.88-5.07,11.06-23.65,11.06-23.65l4.49-6.08
		c0,0,12.45,2.36,12.79,5.07c0.35,2.7-10.72,17.91-10.72,17.91s-4.49,7.77-2.76,9.8c1.73,2.03,5.53,0.68,5.53,0.68l42.17-79.76
		c0,0,0-9.8,8.99-6.08c8.99,3.72,9.68,8.79,6.91,14.53c-2.76,5.75-30.76,44.28-30.76,44.28s5.87,0,6.91,4.39
		c1.04,4.4,0,12.51,0,12.51l3.8-0.68c0,0,4.84-7.77,12.1-20.61c7.26-12.84,15.56-17.57,21.43-17.57c5.88,0,7.95,6.42,7.95,6.42
		s5.53,3.72,7.6,5.41c2.07,1.69,4.49,6.42-4.15,14.87c-8.64,8.45-30.42,18.59-30.42,18.59s-1.04,8.45,0.69,8.79
		c1.73,0.34,4.15,3.04,9.68,0.34c5.53-2.7,10.71-4.73,22.47-18.92c11.75-14.19,23.51-43.6,23.51-43.6h-3.8c0,0-4.84,0-7.95-3.04
		c-3.11-3.04-1.38-8.45-1.38-8.45h20.05l7.26-13.52c0,0,2.76-5.74,10.37-3.72c7.6,2.03,6.91,8.11,6.91,8.11l-4.5,8.79h38.37
		l1.73,3.38l-4.49,0.34c0,0-2.07,3.72-7.26,6.42c-5.18,2.7-36.3,1.02-36.3,1.02s-21.77,34.47-27.31,44.61
		c-5.53,10.14-7.26,12.51-3.11,13.86c4.15,1.35,4.84-2.02,9.33-6.08c4.49-4.05,8.64-7.43,11.41-10.81
		c2.76-3.38,12.79-28.73,12.79-28.73h13.14c3.46,0,4.49,2.36,4.49,2.36s-12.79,20.28-17.97,27.38c-5.18,7.1-9.33,16.9-7.26,16.9
		c2.07,0,3.45,0,7.26-1.69c3.8-1.69,9.68-9.12,13.83-15.21c4.15-6.08,11.75-27.04,11.75-27.04s4.49-8.45,11.06-7.44
		c6.56,1.01,5.87,7.77,5.87,7.77l-31.8,59.48l45.28,4.73l-11.06,6.42l-34.22-4.39l-2.08,1.35c0,0-2.07,2.7-7.6,9.47
		c-5.53,6.76-33.88,14.19-32.15-4.06c1.73-18.25,30.42-14.53,30.42-14.53l3.46-11.16c0,0-10.02,10.14-16.59,8.11
		c-6.57-2.03-4.15-14.53-4.15-14.53s-10.71,13.51-18.67,13.51c-7.95,0-10.71-14.53-10.71-14.53s-17.28,19.6-28.69,17.57
		c-11.41-2.03-15.21-20.28-15.21-20.28s-0.69,4.73-3.46,6.76c-2.77,2.03-5.88,0-5.88,0s-3.46,13.18-7.95,21.29
		c-4.49,8.11-17.98,22.98-20.74,22.31s-12.45-6.76-12.79-12.5c-0.34-5.75,7.61-24.67,7.61-24.67s-4.84,1.69-7.61,1.69
		c-2.76,0-5.18-6.08-5.18-6.08s-1.38,3.04-4.49,5.07c-3.11,2.03-10.72,3.72-13.13,3.72c-2.42,0-16.59-7.77-1.04-35.82
		c15.55-28.05,35.6-29.4,35.6-29.4S528.89,371.32,530.62,374.36 M537.88,414.58c0,0-12.79,22.3-14.17,30.75
		c-1.38,8.45,2.07,8.45,2.07,8.45s13.48-18.59,15.56-23.99c2.07-5.41,2.07-11.16,1.73-13.18
		C542.72,414.58,537.88,414.58,537.88,414.58 M581.43,409.17c2.42-0.68,13.83-13.18,16.25-16.56c2.42-3.38,0.34-6.76-5.18-3.04
		c-5.53,3.72-15.9,19.26-15.9,19.26S579.02,409.85,581.43,409.17 M646.78,443.7c0,0-8.62-0.79-12.66,4.21
		c-4.04,5,0.81,9.48,3.23,9.48c2.42,0,8.08-3.69,9.43-6.58C648.13,447.91,646.78,443.7,646.78,443.7"/>
	<path class="st2" d="M741.86,358.38c9.43-11.59,25.05-7.37,30.43-6.32c5.39,1.05,6.47,6.84,2.96,10.8c-3.5,3.95-5.12,6.58-5.12,7.9
		c0,1.32-1.88,6.32-5.93,5c-4.04-1.31-7.81-3.95-8.35-7.37c-0.54-3.42,2.43-7.9,2.43-7.9s-1.08-2.89-2.43-2.89
		c-1.34,0-7,7.63-8.08,20.54c-1.08,12.9,6.2,36.87,6.2,36.87s11.85-14.75,13.47-13.96c1.62,0.79,1.35,2.64-1.07,6.58
		c-2.43,3.95-10.24,13.96-10.24,13.96l4.04,10.27c0,0-0.54,2.89-8.35,4.47c-7.81,1.58-11.04-5.79-11.04-5.79s-8.35,3.95-16.97,5
		c-8.62,1.05-21.27-1.06-16.7-19.49c4.58-18.43,27.74-33.97,27.74-33.97S732.43,369.97,741.86,358.38 M734.32,390.24
		c0,0-9.97,12.37-11.04,22.38c-1.08,10.01,3.23,11.06,4.85,11.32c1.62,0.26,10.78-0.26,10.78-0.26L734.32,390.24z"/>
	<path class="st2" d="M839.36,340.74c0,0,13.74-3.95,20.74-3.95c7,0,13.47,4.74,14.81,14.22c1.35,9.48-3.23,19.75-3.23,19.75
		s4.85-1.32,7-1.32c2.15,0,6.73,0.26,8.08,3.95c1.35,3.69-3.77,8.43-3.77,8.43s3.5,2.11,8.35,3.95c4.85,1.84,4.04,2.37,3.77,6.32
		c-0.27,3.95-18.05,23.97-19.13,27.39c-1.07,3.42,1.89,7.11,4.31,5.79c2.42-1.32,7-4.21,15.89-16.33
		c8.89-12.11,14.27-31.07,14.01-32.91c-0.27-1.84,0.81-3.43,0.81-3.43s15.35-2.37,15.89,0.79c0.54,3.16,1.35,6.84-2.16,12.38
		c-3.5,5.53-18.04,32.13-18.58,36.87c-0.54,4.74,5.38,11.58,5.38,11.58l-1.35,3.16c0,0-8.08,3.42-11.58-2.63
		c-3.5-6.06-3.77-16.07-3.77-16.07s-4.58,5.53-7.81,9.22c-3.23,3.69-11.85,10.27-16.16,10.27c-4.31,0-7.81-3.16-5.66-15.27
		c2.15-12.11,9.97-24.23,9.97-24.23s1.62-4.21,1.07-5.79c-0.54-1.58-4.85-1.32-4.85-1.32s-1.62,8.69-5.38,17.38
		c-3.78,8.69-14.82,25.55-17.24,25.55c-2.43,0-2.43-3.42-2.43-3.42s5.65-6.32,10.51-15.8c4.85-9.48,10.5-27.12,9.43-27.91
		c-1.08-0.79-2.42-0.79-2.42-0.79s-1.35,3.95-18.58,24.75c-17.24,20.8-44.71,21.86-44.71,21.86s-1.62,0-2.16,1.05
		c-0.54,1.06-0.8,2.64-3.23,4.74c-2.43,2.1-5.93,1.32-8.89-0.79c-2.96-2.11-7.27-6.84-5.38-9.74c1.88-2.9,6.46-6.58,13.2-19.49
		c6.73-12.9,26.4-62.41,26.4-62.41s2.15-5.53,5.38-7.37c3.23-1.84,9.43,0.52,9.43,0.52L839.36,340.74z M825.35,411.57
		c9.42-7.64,18.32-21.33,23.97-34.23c5.66-12.9,6.19-25.28-0.81-23.96c-7,1.31-15.08,15.27-20.74,25.01
		c-5.65,9.74-23.43,43.98-23.43,43.98S815.93,419.21,825.35,411.57"/>
	<path class="st2" d="M924.74,365.49c0,0-5.39,1.05-5.39-8.17c0-9.21,8.62-8.95,11.58-8.43c2.96,0.53,9.96,5.27,8.89,10.01
		c-1.08,4.74-5.66,8.43-7.27,8.69C930.94,367.86,924.74,365.49,924.74,365.49"/>
	<path class="st2" d="M942.25,372.6c0,0-2.69-4.21-11.31,13.69c-8.62,17.91-11.04,33.71-11.04,39.24c0,5.53,2.69,9.74,6.47,10.27
		c3.77,0.53,7.54,0.53,9.69-1.31c2.16-1.84,28.01-38.71,33.4-47.67c5.39-8.95,7.81-16.85,7.81-16.85s19.39-0.52,24.51-5
		c5.12-4.47,4.04-8.43,2.96-9.48c-1.07-1.05-3.5-3.42-5.39-3.16c-1.89,0.26-7,4.21-12.39,5c-5.39,0.79-8.08,0.26-9.7,0.26
		c-1.62,0-1.35-5.79-8.08-6.06c-6.73-0.26-9.43,4.21-9.16,8.16c0.27,3.95,0.81,6.58-2.15,18.69c-2.96,12.12-19.12,38.19-20.74,42.4
		s-3.77,5.27-4.85,5c-1.08-0.26-0.54-12.11,1.62-17.38c2.16-5.27,18.05-25.81,18.05-28.96c0-3.16-2.16-5.53-5.39-7.11
		C943.33,370.76,942.25,372.6,942.25,372.6"/>
	<path class="st2" d="M988.31,379.19c3.23,1.31,3.77,5.27,3.5,9.48c-0.27,4.21-15.35,27.38-16.43,30.81
		c-1.08,3.42,1.88,4.74,1.88,4.74s8.89-6.05,11.58-11.32c2.69-5.27,10.77-19.49,13.2-23.97c2.43-4.47,7-10.79,14.01-12.11
		c7-1.32,7,3.95,7,6.85s-2.42,1.58-14.54,18.17c-12.12,16.59-9.16,20.28-9.16,20.28s6.46-10.27,8.62-13.17
		c2.15-2.9,19.93-23.44,26.13-27.91c6.19-4.48,11.31-1.58,13.47,0.52c2.16,2.11,0.54,5.53-2.96,10.8
		c-3.5,5.27-12.39,16.59-14.55,28.97c-2.15,12.37,4.04,18.43,4.04,18.43s2.15-0.79,6.73-1.31c4.58-0.53,11.85,0.52,11.85,0.52
		l2.7-5.53c0,0-4.31,0-8.35-0.53c-4.04-0.52-7-3.16-7.54-10.27c-0.54-7.11,4.58-29.23,19.12-42.13
		c14.54-12.9,25.32-10.53,31.51-6.32c6.2,4.21,0.27,13.16-3.23,13.43c-3.5,0.26-17.51-3.95-27.74,10.27
		c-10.24,14.22-10.51,27.39-8.08,27.39c2.42,0,4.85-1.58,9.43-7.37c4.58-5.8,13.2-26.07,13.2-26.07s2.15-2.1,6.46-2.1
		c4.31,0,8.62,2.37,8.62,5.79c0,3.43-25.05,43.45-25.05,43.45l9.43,0.26c9.43,0.26,31.52,2.64,36.36,3.42
		c4.85,0.79-9.69,9.22-9.69,9.22l-38.79-4.74c0,0-6.46,12.11-12.66,15.8c-6.2,3.69-16.43,2.1-22.89-3.43
		c-6.47-5.53-1.62-14.48-1.62-14.48l-4.58-2.64c-4.58-2.63-5.12-9.22-5.12-12.38c0-3.16,2.69-11.06,6.47-19.49
		c3.77-8.43,10.77-16.06,9.96-15.8c-0.81,0.26-7,3.95-16.7,16.06c-9.7,12.11-12.66,24.49-12.66,24.49s-3.23,5-9.16-0.53
		c-5.92-5.53-5.38-12.11-5.38-12.11l-2.96,4.74c-2.96,4.74-9.7,8.43-11.05,7.9c-1.35-0.53-4.31-1.58-7-6.32
		c-2.69-4.74-2.42-9.48-1.62-15.54c0.81-6.06,11.05-27.91,13.2-32.13c2.16-4.21,4.58-2.9,4.58-2.9S985.07,377.87,988.31,379.19
		 M1048.37,445.81c0,0-6.73-1.58-10.51,1.05c-3.77,2.63-5.65,6.85-1.88,9.22c3.77,2.37,8.62,0,10.24-1.58
		C1047.83,452.91,1048.37,445.81,1048.37,445.81"/>
	<polygon class="st3" points="149.41,183.14 149.41,206.68 68.05,206.68 68.05,223.34 145.3,223.34 145.3,243.72 67.46,243.72 
		67.46,260.38 150.29,260.38 127.67,284.5 35.74,284.5 35.74,182.56 147.35,182.56 	"/>
	<polygon class="st3" points="160.86,183.42 201.1,183.42 231.06,212.71 259.85,184.57 299.2,184.57 252.8,232.52 304.93,283.5 
		260.72,283.5 231.35,254.06 136.19,348.82 93.02,348.82 209.33,234.25 	"/>
	<polygon class="st3" points="169.67,218.17 170.56,247.46 186.12,233.39 	"/>
	<polygon class="st3" points="293.33,215.87 276.88,234.82 293.03,249.76 293.84,250.55 	"/>
	<path class="st3" d="M310.69,183.46v100.8h30.24v-75.84h51.8c0,0,10.41,0.73,10.9,8.97c0.5,8.24-2.97,12.36-5.95,12.36h-49.32
		l24.29,22.78h39.4c0,0,10.41-2.91,14.87-12.36c4.46-9.45,4.46-13.57,4.46-13.57v-23.26c0,0-3.47-12.6-10.66-16.23
		c-7.19-3.63-16.6-3.39-16.6-3.39S311.06,183.09,310.69,183.46"/>
	<path class="st3" d="M441.8,183.46V284.5h100.87v-22.29h-68.65v-78.75C474.02,183.46,441.8,183.7,441.8,183.46"/>
	<path class="st3" d="M673.21,284.98H572.99c-10.31,0-18.67-8.17-18.67-18.25v-65.92c0-9.31,7.72-16.86,17.25-16.86h102.7
		c8.36,0,15.13,6.62,15.13,14.79v70.42C689.39,277.9,682.14,284.98,673.21,284.98 M661.88,251.31v-36.36c0-5.35-4.43-9.68-9.91-9.68
		h-60.24c-5.47,0-9.91,4.33-9.91,9.68v36.36c0,5.35,4.43,9.68,9.91,9.68h60.24C657.45,261,661.88,256.66,661.88,251.31"/>
	<path class="st3" d="M642.23,244.03h-40c-2.09,0-3.79-1.66-3.79-3.71v-13.91c0-2.05,1.7-3.7,3.79-3.7h40c2.09,0,3.79,1.66,3.79,3.7
		v13.91C646.02,242.38,644.32,244.03,642.23,244.03"/>
	<path class="st3" d="M703.35,284.42h34.03v-75.6h55.85c0,0,6.94,2.26,7.27,9.05c0.33,6.79-5.29,10.98-5.29,10.98h-52.21
		l61.46,55.57h35.69l-42.63-36.83h11.9c0,0,13.7-3.63,17.33-11.39c3.64-7.76,2.83-17.04,2.83-17.04l-0.51-18.51
		c0,0-2.89-10.08-10.78-13.92c-9.94-4.84-22.75-3.42-22.75-3.42h-91.2L703.35,284.42z"/>
	<polygon class="st3" points="845.24,229.61 900.66,229.61 900.66,256.52 845.62,256.52 	"/>
	<path class="st3" d="M916.16,182.33h32.05v49.75l56.51-48.46h40.65l-56.51,47.17l64.77,52.98h-46.92l-58.16-50.4l-0.33,50.72
		h-31.72C916.49,284.1,916.82,181.68,916.16,182.33"/>
</g>
</svg>
