<?xml version="1.0" encoding="utf-8"?>
<!-- Generator: Adobe Illustrator 23.0.2, SVG Export Plug-In . SVG Version: 6.00 Build 0)  -->
<svg version="1.1" id="Capa_1" xmlns="http://www.w3.org/2000/svg" xmlns:xlink="http://www.w3.org/1999/xlink" x="0px" y="0px"
	 viewBox="0 0 1080 329.51" style="enable-background:new 0 0 1080 329.51;" xml:space="preserve">
<style type="text/css">
	.st0{fill:#183A57;}
	.st1{fill:#FFFFFF;}
	.st2{fill:#FFF2EE;}
	.st3{fill:#BF0404;}
	.st4{fill:none;stroke:#000000;stroke-width:4;stroke-miterlimit:10;}
	.st5{fill:#010202;}
	.st6{fill:#CB5524;}
</style>
<g>
	<path class="st0" d="M203.89,226.17l564.41-10.3V205.1l85.91,1.96c-23.58-8.78-50.68-10.49-85.91-13.71l1.96-89.09h9.79
		l-12.73-8.81l-0.98-46.99c46.99,5.29,80.4,21.33,93.01,53.85L829,103.28c31.65,2.9,56.36,7.36,59.72,16.64l-9.46,0.65
		c3.06,3.82,3.95,10.68,4.57,17.95c-1.16-7.63-3.3-14.42-8.81-18.28l-4.57,0.98c6.34,7.73,9.19,16.38,10.44,25.46
		c36.32,3.19,73.47,5.74,90.56,23.66c-21.59-2.88-44.87-2.85-69.51-0.49c22.16,1.43,65.29,9.61,65.92,10.93
		c3.2,2.94,4.9,11.18,4.32,27.13l-11.67,2.41l13.71,0c4.5,17.51-5.24,25.79-21.21,30.02c1.91-21.61-4.82-31.66-15.66-36.23
		c13.57,16.84,12.31,30.19,3.59,41.77c-7.55,10.73-31.53,15.99-46.34,0c-7.86-10.31-7.32-23.7-2.94-38.51
		c-5.93,9.29-10.27,19.31-8.16,32.31L203.89,226.17z"/>
	<path class="st1" d="M904.06,232.84c24.24,23.89,34.79-10.09,16.97-20.56C961.3,224.93,911.73,268.62,904.06,232.84z"/>
	<polygon class="st2" points="810.4,156.48 799.3,113.72 818.88,113.72 824.43,139.83 811.87,139.83 	"/>
	<path class="st1" d="M826.06,115.68l8.81,46.34l1.96-18.6l36.23,1.31c0.95-13.23-5.57-22.44-16.97-29.05L826.06,115.68z"/>
	<polygon class="st3" points="128,256.01 849.61,265.48 873.15,246.63 	"/>
</g>
<g>
	<path class="st1" d="M754.28,120.03l-43.87-35.5l38.49-31.88h-46.73l-16.3,14.13V51.99h-32.78v23.17h-27.9
		c0,0,0.74-10.62-5.55-16.27c-8.24-7.4-16.81-6.58-16.81-6.58h-57.15v3.62c0,0-5.55-3.62-8.74-4.11c-3.2-0.49-49.09,0-49.09,0
		s-8.24-0.33-13.79,6.57c-5.55,6.9-5.04,9.2-5.04,9.2v23.67h-24.04V52.15h-33.28v2.47c0,0-2.86-2.14-5.21-2.3
		c-2.35-0.16-83.04,0-83.04,0L312.52,63l-10.51-10.27h-96.24v67.3h49.76l-32.28,31.72h44.71l44.38-43.71l12.1,12.32h52.95V99.49
		c0,0,1.68,1.81,3.19,2.79c1.51,0.99,3.19,0.99,3.19,0.99h23.37c0,0,2.35,0,3.2-1.15l0.84-1.15v19.06h68.75v-2.63
		c0,0,3.87,2.3,6.72,2.96c2.86,0.66,47.74,0,47.74,0s5.04-0.49,7.06-1.64c2.02-1.15,3.19-2.63,3.19-2.63v3.95h32.95v-19.56
		l23.37,20.21h42.86l-16.81-15.12h25.55v14.46h32.44v-17.09l19.67,17.42L754.28,120.03z"/>
	<path class="st4" d="M754.28,120.03l-43.87-35.5l38.49-31.88h-46.73l-16.3,14.13V51.99h-32.78v23.17h-27.9
		c0,0,0.74-10.62-5.55-16.27c-8.24-7.4-16.81-6.58-16.81-6.58h-57.15v3.62c0,0-5.55-3.62-8.74-4.11c-3.2-0.49-49.09,0-49.09,0
		s-8.24-0.33-13.79,6.57c-5.55,6.9-5.04,9.2-5.04,9.2v23.67h-24.04V52.15h-33.28v2.47c0,0-2.86-2.14-5.21-2.3
		c-2.35-0.16-83.04,0-83.04,0L312.52,63l-10.51-10.27h-96.24v67.3h49.76l-32.28,31.72h44.71l44.38-43.71l12.1,12.32h52.95V99.49
		c0,0,1.68,1.81,3.19,2.79c1.51,0.99,3.19,0.99,3.19,0.99h23.37c0,0,2.35,0,3.2-1.15l0.84-1.15v19.06h68.75v-2.63
		c0,0,3.87,2.3,6.72,2.96c2.86,0.66,47.74,0,47.74,0s5.04-0.49,7.06-1.64c2.02-1.15,3.19-2.63,3.19-2.63v3.95h32.95v-19.56
		l23.37,20.21h42.86l-16.81-15.12h25.55v14.46h32.44v-17.09l19.67,17.42L754.28,120.03z"/>
	<polygon class="st5" points="270.94,60.29 270.94,72.27 229.56,72.27 229.56,80.74 268.85,80.74 268.85,91.11 229.26,91.11 
		229.26,99.58 271.39,99.58 259.89,111.85 213.12,111.85 213.12,60 269.9,60 	"/>
	<polygon class="st5" points="276.77,60.44 297.24,60.44 312.48,75.33 327.12,61.02 347.14,61.02 323.54,85.41 350.06,111.34 
		327.57,111.34 312.63,96.37 264.22,144.57 242.26,144.57 301.42,86.29 	"/>
	<polygon class="st5" points="281.25,78.11 281.7,93.01 289.62,85.85 	"/>
	<polygon class="st5" points="344.15,76.94 335.79,86.58 344,94.18 344.42,94.58 	"/>
	<path class="st5" d="M352.99,60.45v51.28h15.38V73.15h26.35c0,0,5.29,0.37,5.55,4.56c0.25,4.19-1.51,6.29-3.02,6.29h-25.09
		l12.36,11.59h20.04c0,0,5.29-1.48,7.56-6.29c2.27-4.81,2.27-6.9,2.27-6.9V70.56c0,0-1.77-6.41-5.42-8.26
		c-3.66-1.85-8.45-1.72-8.45-1.72S353.18,60.27,352.99,60.45"/>
	<path class="st5" d="M419.68,60.45v51.4h51.31v-11.34h-34.92V60.45C436.07,60.45,419.68,60.58,419.68,60.45"/>
	<path class="st5" d="M537.39,112.1h-50.98c-5.25,0-9.5-4.16-9.5-9.29V69.28c0-4.74,3.93-8.58,8.77-8.58h52.24
		c4.25,0,7.7,3.37,7.7,7.53v35.82C545.63,108.49,541.94,112.1,537.39,112.1 M531.63,94.97v-18.5c0-2.72-2.26-4.93-5.04-4.93h-30.64
		c-2.78,0-5.04,2.2-5.04,4.93v18.5c0,2.72,2.26,4.93,5.04,4.93h30.64C529.38,99.9,531.63,97.69,531.63,94.97"/>
	<path class="st5" d="M521.64,91.27h-20.35c-1.07,0-1.93-0.84-1.93-1.89V82.3c0-1.04,0.86-1.88,1.93-1.88h20.35
		c1.06,0,1.93,0.84,1.93,1.88v7.08C523.56,90.42,522.7,91.27,521.64,91.27"/>
	<path class="st5" d="M552.73,111.81h17.31V73.36h28.41c0,0,3.53,1.15,3.7,4.6c0.17,3.45-2.69,5.59-2.69,5.59H572.9l31.27,28.27
		h18.16l-21.68-18.73h6.05c0,0,6.97-1.85,8.82-5.79c1.85-3.95,1.44-8.67,1.44-8.67l-0.26-9.42c0,0-1.47-5.13-5.48-7.08
		c-5.06-2.46-11.57-1.74-11.57-1.74h-46.39L552.73,111.81z"/>
	<polygon class="st5" points="624.9,83.93 653.1,83.93 653.1,97.62 625.1,97.62 	"/>
	<path class="st5" d="M660.98,59.88h16.31v25.31l28.75-24.65h20.68l-28.75,24l32.95,26.95h-23.87l-29.59-25.64l-0.17,25.8h-16.14
		C661.15,111.65,661.32,59.55,660.98,59.88"/>
</g>
<g>
	<path class="st6" d="M328.25,157.39v13.62h12.66v5.64h-12.66v13.68h12.66v5.64h-18.3v-44.22h18.3v5.64H328.25z"/>
	<path class="st6" d="M371.45,151.69l-11.1,44.22h-4.44l-10.98-44.22h5.82l7.38,29.7l7.5-29.7H371.45z"/>
	<path class="st6" d="M378.41,195.97h-5.82l10.2-44.22h4.5l10.32,44.22h-5.88l-2.82-12.36h-7.68L378.41,195.97z M385.07,167.11
		l-2.52,10.86h5.04L385.07,167.11z"/>
	<path class="st6" d="M398.81,195.91v-44.22h5.64v38.58h13.62v5.64H398.81z"/>
	<path class="st6" d="M430.07,195.91c-2,0-3.6-0.35-4.8-1.05c-1.2-0.7-2.1-1.45-2.7-2.25c-1.6-1.96-2.4-4.78-2.4-8.46v-32.46h5.64
		v32.46c0,1.52,0.15,2.7,0.45,3.54c0.3,0.84,0.67,1.45,1.11,1.83c0.44,0.38,0.9,0.6,1.38,0.66s0.92,0.09,1.32,0.09
		c0.4,0,0.84-0.03,1.32-0.09s0.94-0.28,1.38-0.66c0.44-0.38,0.81-0.99,1.11-1.83s0.45-2.02,0.45-3.54v-32.46h5.64v32.46
		c0,3.68-0.8,6.5-2.4,8.46c-0.6,0.8-1.5,1.55-2.7,2.25C433.67,195.56,432.07,195.91,430.07,195.91z"/>
	<path class="st6" d="M450.29,195.97h-5.82l10.2-44.22h4.5l10.32,44.22h-5.88l-2.82-12.36h-7.68L450.29,195.97z M456.95,167.11
		l-2.52,10.86h5.04L456.95,167.11z"/>
	<path class="st6" d="M481.19,195.97c-1.08,0-2.04-0.11-2.88-0.33c-0.84-0.22-1.59-0.5-2.25-0.84c-0.66-0.34-1.22-0.72-1.68-1.14
		c-0.46-0.42-0.85-0.83-1.17-1.23c-1.68-2.16-2.52-5.2-2.52-9.12v-18.96c0-3.92,0.84-6.96,2.52-9.12c0.64-0.8,1.59-1.58,2.85-2.34
		c1.26-0.76,2.97-1.14,5.13-1.14s3.86,0.38,5.1,1.14c1.24,0.76,2.18,1.54,2.82,2.34c1.72,2.2,2.58,5.24,2.58,9.12v2.82h-5.7v-2.82
		c0-1.72-0.17-3.06-0.51-4.02c-0.34-0.96-0.76-1.65-1.26-2.07c-0.5-0.42-1.03-0.67-1.59-0.75c-0.56-0.08-1.04-0.12-1.44-0.12
		c-0.44,0-0.93,0.04-1.47,0.12c-0.54,0.08-1.07,0.33-1.59,0.75c-0.52,0.42-0.95,1.11-1.29,2.07c-0.34,0.96-0.51,2.3-0.51,4.02v18.96
		c0,2.6,0.46,4.48,1.38,5.64c0.2,0.28,0.56,0.58,1.08,0.9c0.52,0.32,1.32,0.48,2.4,0.48s1.87-0.16,2.37-0.48
		c0.5-0.32,0.87-0.62,1.11-0.9c0.88-1.2,1.32-3.08,1.32-5.64v-2.82h5.7v2.82c0,3.88-0.86,6.92-2.58,9.12
		c-0.64,0.8-1.58,1.59-2.82,2.37C485.05,195.58,483.35,195.97,481.19,195.97z"/>
	<path class="st6" d="M495.77,195.97v-44.22h5.64v44.22H495.77z"/>
	<path class="st6" d="M516.59,195.91c-2.12,0-3.82-0.38-5.1-1.14c-1.28-0.76-2.24-1.54-2.88-2.34c-1.68-2.16-2.52-5.2-2.52-9.12
		v-19.02c0-3.92,0.84-6.96,2.52-9.12c0.32-0.4,0.71-0.8,1.17-1.2c0.46-0.4,1.02-0.77,1.68-1.11c0.66-0.34,1.41-0.62,2.25-0.84
		c0.84-0.22,1.8-0.33,2.88-0.33c2.16,0,3.87,0.38,5.13,1.14c1.26,0.76,2.21,1.54,2.85,2.34c1.68,2.16,2.52,5.2,2.52,9.12v19.02
		c0,3.92-0.84,6.96-2.52,9.12c-0.64,0.8-1.59,1.58-2.85,2.34C520.46,195.53,518.75,195.91,516.59,195.91z M516.59,157.39
		c-0.44,0-0.93,0.04-1.47,0.12c-0.54,0.08-1.07,0.33-1.59,0.75c-0.52,0.42-0.95,1.1-1.29,2.04c-0.34,0.94-0.51,2.27-0.51,3.99v19.02
		c0,1.76,0.17,3.11,0.51,4.05c0.34,0.94,0.77,1.62,1.29,2.04c0.52,0.42,1.05,0.67,1.59,0.75c0.54,0.08,1.03,0.12,1.47,0.12
		c0.4,0,0.88-0.04,1.44-0.12c0.56-0.08,1.1-0.33,1.62-0.75c0.52-0.42,0.95-1.1,1.29-2.04c0.34-0.94,0.51-2.29,0.51-4.05v-19.02
		c0-1.72-0.17-3.05-0.51-3.99c-0.34-0.94-0.77-1.62-1.29-2.04c-0.52-0.42-1.06-0.67-1.62-0.75
		C517.47,157.43,516.99,157.39,516.59,157.39z"/>
	<path class="st6" d="M536.03,195.91h-5.64v-44.22h4.74l10.8,26.76v-26.76h5.7v44.22h-4.8l-10.8-26.76V195.91z"/>
	<path class="st6" d="M580.01,195.91h-5.64v-44.22h9.18c3.76,0,6.62,1.1,8.58,3.3c1.8,2.12,2.7,5.16,2.7,9.12
		c0,4.04-0.9,7.1-2.7,9.18c-1.92,2.24-4.78,3.36-8.58,3.36h-3.54V195.91z M580.01,170.95h3.54c1.56,0,2.62-0.18,3.18-0.54
		c0.56-0.36,0.92-0.64,1.08-0.84c0.88-0.92,1.32-2.74,1.32-5.46c0-1.44-0.12-2.6-0.36-3.48s-0.59-1.56-1.05-2.04
		c-0.46-0.48-1.04-0.8-1.74-0.96c-0.7-0.16-1.51-0.24-2.43-0.24h-3.54V170.95z"/>
	<path class="st6" d="M614.57,174.19c1.08,1.04,1.91,2.28,2.49,3.72c0.58,1.44,0.87,3.08,0.87,4.92v13.08h-5.7v-13.08
		c0-3.88-1.88-5.82-5.64-5.82h-2.82h-0.72v18.9h-5.64v-44.22h9.18c3.8,0,6.66,1.12,8.58,3.36c1.76,2.04,2.64,5.12,2.64,9.24
		c0,4.08-0.88,7.18-2.64,9.3c-0.08,0.08-0.17,0.18-0.27,0.3C614.79,174.01,614.69,174.11,614.57,174.19z M606.59,171.31
		c1.52,0,2.57-0.18,3.15-0.54c0.58-0.36,0.95-0.64,1.11-0.84c0.88-1.12,1.32-3,1.32-5.64c0-1.48-0.12-2.67-0.36-3.57
		s-0.59-1.6-1.05-2.1c-0.46-0.5-1.04-0.83-1.74-0.99c-0.7-0.16-1.51-0.24-2.43-0.24h-3.54v13.92h0.72H606.59z"/>
	<path class="st6" d="M628.25,195.97h-5.82l10.2-44.22h4.5l10.32,44.22h-5.88l-2.82-12.36h-7.68L628.25,195.97z M634.91,167.11
		l-2.52,10.86h5.04L634.91,167.11z"/>
	<path class="st6" d="M659.14,195.97c-1.08,0-2.04-0.11-2.88-0.33c-0.84-0.22-1.59-0.5-2.25-0.84s-1.22-0.72-1.68-1.14
		c-0.46-0.42-0.85-0.83-1.17-1.23c-1.68-2.16-2.52-5.2-2.52-9.12v-18.96c0-3.92,0.84-6.96,2.52-9.12c0.64-0.8,1.59-1.58,2.85-2.34
		c1.26-0.76,2.97-1.14,5.13-1.14s3.86,0.38,5.1,1.14c1.24,0.76,2.18,1.54,2.82,2.34c1.72,2.2,2.58,5.24,2.58,9.12v2.82h-5.7v-2.82
		c0-1.72-0.17-3.06-0.51-4.02s-0.76-1.65-1.26-2.07c-0.5-0.42-1.03-0.67-1.59-0.75c-0.56-0.08-1.04-0.12-1.44-0.12
		c-0.44,0-0.93,0.04-1.47,0.12c-0.54,0.08-1.07,0.33-1.59,0.75c-0.52,0.42-0.95,1.11-1.29,2.07c-0.34,0.96-0.51,2.3-0.51,4.02v18.96
		c0,2.6,0.46,4.48,1.38,5.64c0.2,0.28,0.56,0.58,1.08,0.9c0.52,0.32,1.32,0.48,2.4,0.48s1.87-0.16,2.37-0.48
		c0.5-0.32,0.87-0.62,1.11-0.9c0.88-1.2,1.32-3.08,1.32-5.64v-2.82h5.7v2.82c0,3.88-0.86,6.92-2.58,9.12
		c-0.64,0.8-1.58,1.59-2.82,2.37C663,195.58,661.3,195.97,659.14,195.97z"/>
	<path class="st6" d="M696.94,157.39h-9.66v38.52h-5.7v-38.52h-9.66v-5.7h25.02V157.39z"/>
	<path class="st6" d="M701.38,195.97v-44.22h5.64v44.22H701.38z"/>
	<path class="st6" d="M722.2,195.97c-1.08,0-2.04-0.11-2.88-0.33c-0.84-0.22-1.59-0.5-2.25-0.84s-1.22-0.72-1.68-1.14
		c-0.46-0.42-0.85-0.83-1.17-1.23c-1.68-2.16-2.52-5.2-2.52-9.12v-18.96c0-3.92,0.84-6.96,2.52-9.12c0.64-0.8,1.59-1.58,2.85-2.34
		c1.26-0.76,2.97-1.14,5.13-1.14s3.86,0.38,5.1,1.14c1.24,0.76,2.18,1.54,2.82,2.34c1.72,2.2,2.58,5.24,2.58,9.12v2.82H727v-2.82
		c0-1.72-0.17-3.06-0.51-4.02s-0.76-1.65-1.26-2.07c-0.5-0.42-1.03-0.67-1.59-0.75c-0.56-0.08-1.04-0.12-1.44-0.12
		c-0.44,0-0.93,0.04-1.47,0.12c-0.54,0.08-1.07,0.33-1.59,0.75c-0.52,0.42-0.95,1.11-1.29,2.07c-0.34,0.96-0.51,2.3-0.51,4.02v18.96
		c0,2.6,0.46,4.48,1.38,5.64c0.2,0.28,0.56,0.58,1.08,0.9c0.52,0.32,1.32,0.48,2.4,0.48s1.87-0.16,2.37-0.48
		c0.5-0.32,0.87-0.62,1.11-0.9c0.88-1.2,1.32-3.08,1.32-5.64v-2.82h5.7v2.82c0,3.88-0.86,6.92-2.58,9.12
		c-0.64,0.8-1.58,1.59-2.82,2.37C726.06,195.58,724.36,195.97,722.2,195.97z"/>
	<path class="st6" d="M740.8,195.97h-5.82l10.2-44.22h4.5L760,195.97h-5.88l-2.82-12.36h-7.68L740.8,195.97z M747.46,167.11
		l-2.52,10.86h5.04L747.46,167.11z"/>
</g>
</svg>
